<svg width="18" height="18" viewBox="0 0 18 18" fill="none" xmlns="http://www.w3.org/2000/svg">
<path d="M10.5 9.75H14.25V8.25H10.5V9.75ZM10.5 7.5H14.25V6H10.5V7.5ZM3.75 12H9.75V11.5875C9.75 11.025 9.475 10.5781 8.925 10.2469C8.375 9.91562 7.65 9.75 6.75 9.75C5.85 9.75 5.125 9.91562 4.575 10.2469C4.025 10.5781 3.75 11.025 3.75 11.5875V12ZM6.75 9C7.1625 9 7.51562 8.85312 7.80937 8.55937C8.10312 8.26562 8.25 7.9125 8.25 7.5C8.25 7.0875 8.10312 6.73437 7.80937 6.44062C7.51562 6.14687 7.1625 6 6.75 6C6.3375 6 5.98437 6.14687 5.69062 6.44062C5.39687 6.73437 5.25 7.0875 5.25 7.5C5.25 7.9125 5.39687 8.26562 5.69062 8.55937C5.98437 8.85312 6.3375 9 6.75 9ZM3 15C2.5875 15 2.23437 14.8531 1.94062 14.5594C1.64687 14.2656 1.5 13.9125 1.5 13.5V4.5C1.5 4.0875 1.64687 3.73437 1.94062 3.44062C2.23437 3.14687 2.5875 3 3 3H15C15.4125 3 15.7656 3.14687 16.0594 3.44062C16.3531 3.73437 16.5 4.0875 16.5 4.5V13.5C16.5 13.9125 16.3531 14.2656 16.0594 14.5594C15.7656 14.8531 15.4125 15 15 15H3ZM3 13.5H15V4.5H3V13.5Z" fill="#616161"/>
</svg>
