<svg width="18" height="18" viewBox="0 0 24 24" fill="none" xmlns="http://www.w3.org/2000/svg">
  <path d="M16 11C18.2091 11 20 9.20914 20 7C20 4.79086 18.2091 3 16 3C13.7909 3 12 4.79086 12 7C12 9.20914 13.7909 11 16 11Z" fill="none" stroke="#616161" stroke-width="2"/>
  <path d="M8 11C10.2091 11 12 9.20914 12 7C12 4.79086 10.2091 3 8 3C5.79086 3 4 4.79086 4 7C4 9.20914 5.79086 11 8 11Z" fill="none" stroke="#616161" stroke-width="2"/>
  <path fill-rule="evenodd" clip-rule="evenodd" d="M8 13C5.87827 13 4.84344 13.7375 4.29289 14.2929C3.84286 14.7327 3.5 15.4267 3.5 16.25V17C3.5 17.5523 3.94772 18 4.5 18H11.5C12.0523 18 12.5 17.5523 12.5 17V16.25C12.5 15.4267 12.1571 14.7327 11.7071 14.2929C11.1566 13.7375 10.1217 13 8 13ZM16 13C14.6529 13 13.6737 13.3476 13.0135 13.8223C12.511 14.2114 12.5 14.885 12.5 15.4375V16.5C12.5 17.0523 12.9477 17.5 13.5 17.5H20.5C21.0523 17.5 21.5 17.0523 21.5 16.5V15.4375C21.5 14.885 21.489 14.2114 20.9865 13.8223C20.3263 13.3476 19.3471 13 18 13H16Z" fill="none" stroke="#616161" stroke-width="2"/>
</svg>
