<svg width="18" height="18" viewBox="0 0 18 18" fill="none" xmlns="http://www.w3.org/2000/svg">
<path d="M4.5 15C3.875 15 3.34375 14.7812 2.90625 14.3437C2.46875 13.9062 2.25 13.375 2.25 12.75H0.75V4.5C0.75 4.0875 0.896875 3.73437 1.19063 3.44062C1.48438 3.14687 1.8375 3 2.25 3H12.75V6H15L17.25 9V12.75H15.75C15.75 13.375 15.5313 13.9062 15.0938 14.3437C14.6563 14.7812 14.125 15 13.5 15C12.875 15 12.3438 14.7812 11.9063 14.3437C11.4688 13.9062 11.25 13.375 11.25 12.75H6.75C6.75 13.375 6.53125 13.9062 6.09375 14.3437C5.65625 14.7812 5.125 15 4.5 15ZM4.5 13.5C4.7125 13.5 4.89063 13.4281 5.03438 13.2844C5.17813 13.1406 5.25 12.9625 5.25 12.75C5.25 12.5375 5.17813 12.3594 5.03438 12.2156C4.89063 12.0719 4.7125 12 4.5 12C4.2875 12 4.10938 12.0719 3.96563 12.2156C3.82188 12.3594 3.75 12.5375 3.75 12.75C3.75 12.9625 3.82188 13.1406 3.96563 13.2844C4.10938 13.4281 4.2875 13.5 4.5 13.5ZM2.25 11.25H2.85C3.0625 11.025 3.30625 10.8437 3.58125 10.7062C3.85625 10.5687 4.1625 10.5 4.5 10.5C4.8375 10.5 5.14375 10.5687 5.41875 10.7062C5.69375 10.8437 5.9375 11.025 6.15 11.25H11.25V4.5H2.25V11.25ZM13.5 13.5C13.7125 13.5 13.8906 13.4281 14.0344 13.2844C14.1781 13.1406 14.25 12.9625 14.25 12.75C14.25 12.5375 14.1781 12.3594 14.0344 12.2156C13.8906 12.0719 13.7125 12 13.5 12C13.2875 12 13.1094 12.0719 12.9656 12.2156C12.8219 12.3594 12.75 12.5375 12.75 12.75C12.75 12.9625 12.8219 13.1406 12.9656 13.2844C13.1094 13.4281 13.2875 13.5 13.5 13.5ZM12.75 9.75H15.9375L14.25 7.5H12.75V9.75Z" fill="#616161"/>
</svg>
