<svg width="60" height="45" viewBox="0 0 60 45" fill="none" xmlns="http://www.w3.org/2000/svg">
<g id="Layer_1" clip-path="url(#clip0_8034_2982)">
<path id="Vector" d="M37.9869 0.192652L15.9739 22.2056L37.9869 44.2185L59.9998 22.2056L37.9869 0.192652Z" fill="#CC7415"/>
<path id="Vector_2" d="M14.1206 7.8905L12.4603 9.55304L15.8554 12.9503H12.3859H10.0409H9.06303L7.8905 14.1206L9.06303 15.2932H12.3859H15.8554L12.4603 18.6904L14.1206 20.353L20.3508 14.1206L14.1206 7.8905Z" fill="#CC7415"/>
<path id="Vector_3" d="M22.0133 0L20.3507 1.66253L23.748 5.05761L20.2764 5.05979H17.9335H16.9535L15.7831 6.23013L16.9535 7.40265H20.2764H23.748L20.3507 10.7977L22.0133 12.4603L28.2412 6.23013L22.0133 0Z" fill="#CC7415"/>
<path id="Vector_4" d="M6.23013 15.7832L4.5676 17.4457L7.96485 20.8408H4.49322H2.15036H1.17252L0 22.0133L1.17252 23.1859H4.49322H7.96485L4.5676 26.5809L6.23013 28.2435L12.4603 22.0133L6.23013 15.7832Z" fill="#CC7415"/>
<path id="Vector_5" d="M14.1206 23.6736L12.4603 25.3361L15.8554 28.7312L12.3859 28.7334H10.0409H9.06303L7.8905 29.9037L9.06303 31.0762H12.3859H15.8554L12.4603 34.4735L14.1206 36.1338L20.3508 29.9037L14.1206 23.6736Z" fill="#CC7415"/>
<path id="Vector_6" d="M22.0133 31.5663L20.3507 33.2266L23.748 36.6239H20.2764H17.9335H16.9535L15.7831 37.7964L16.9535 38.9689H20.2764H23.748L20.3507 42.364L22.0133 44.0265L28.2412 37.7964L22.0133 31.5663Z" fill="#CC7415"/>
<path id="Vector_7" d="M38.0349 13.915C35.7029 13.915 33.5548 14.8075 31.9622 16.2863L31.295 15.6191L31.1988 14.3962L28.915 12.1124L28.8253 13.6087L27.3224 13.7225L29.6062 16.0128L30.8291 16.0763L31.505 16.7522C30.0241 18.3447 29.125 20.4667 29.125 22.8161V22.8248L29.7769 23.1617C29.7681 23.0502 29.7681 22.9298 29.7681 22.8161C29.7681 20.6526 30.6038 18.6904 31.9622 17.2116L33.2332 18.4826C32.1963 19.6332 31.5444 21.1601 31.5444 22.8161C31.5444 23.2755 31.5925 23.7239 31.6888 24.1592L32.5091 24.5858C32.3166 24.0236 32.2204 23.4199 32.2204 22.792C32.2204 21.3198 32.7913 19.9526 33.7166 18.9157L35.5411 20.7423C35.0817 21.2957 34.8017 22.0133 34.8017 22.792C34.8017 24.5683 36.2323 26.0252 38.0349 26.0252C39.8374 26.0252 41.2681 24.5946 41.2681 22.792C41.2681 20.9895 39.8374 19.5676 38.0349 19.5676C37.2473 19.5676 36.532 19.841 35.9764 20.307L34.1585 18.4804C35.1954 17.5572 36.5298 16.9775 38.0349 16.9775C41.2681 16.9775 43.8734 19.607 43.8734 22.8161C43.8734 23.4439 43.7772 24.0477 43.5912 24.6099L44.3722 24.1986C44.4684 23.748 44.5166 23.2908 44.5166 22.8161C44.5166 19.2373 41.6137 16.3344 38.0349 16.3344C36.3701 16.3344 34.8498 16.9775 33.6926 18.0144L32.4216 16.7522C33.9026 15.385 35.8626 14.5559 38.0349 14.5559C42.5784 14.5559 46.2928 18.2704 46.2928 22.8139C46.2928 22.943 46.2928 23.072 46.2841 23.2011L46.9447 22.8555V22.8161C46.9447 17.9029 42.9481 13.915 38.0349 13.915ZM37.1577 22.407C37.1095 22.5208 37.0614 22.6805 37.0614 22.8161C37.0614 23.3477 37.5033 23.7895 38.0349 23.7895C38.5664 23.7895 38.9996 23.3477 38.9843 22.8402C38.9843 22.3086 38.5424 21.8754 38.0108 21.8754C37.8752 21.8754 37.7133 21.8995 37.593 21.9651L36.4183 20.7904C36.8601 20.4448 37.407 20.2348 38.0108 20.2348C39.4415 20.2348 40.5921 21.3854 40.5921 22.8161C40.5921 24.2467 39.4415 25.4061 38.0108 25.4061C36.5801 25.4061 35.4295 24.2489 35.4295 22.8161C35.4295 22.2211 35.6307 21.6654 35.9764 21.2236L37.1577 22.4048V22.407Z" fill="white"/>
<path id="Vector_8" d="M39.9883 28.1231C39.833 28.2259 39.6492 28.2806 39.4633 28.2806H38.118C38.0042 28.2806 37.8992 28.3418 37.8445 28.4403L36.9061 30.0853L37.1904 30.2756C37.3261 30.3675 37.4989 30.3588 37.6258 30.2559L38.818 29.3022C38.9449 29.2015 39.1264 29.2103 39.2424 29.3262L41.419 31.5028L41.8434 31.0478L40.4368 27.83L39.9883 28.1275V28.1231Z" fill="white"/>
<path id="Vector_9" d="M38.0239 30.7481C37.6827 31.0215 37.2014 31.0434 36.8383 30.8006L36.3023 30.444C36.1645 30.3521 36.1208 30.1662 36.2039 30.024L36.9542 28.7115L35.6023 28.0377L34.2898 31.0347L34.9264 31.6712C35.1058 31.8506 35.2042 32.0912 35.2042 32.345V32.73C35.2042 32.8263 35.2479 32.9159 35.3223 32.975L38.0021 35.121L40.9771 31.96L38.9865 29.9715L38.0217 30.7481H38.0239Z" fill="white"/>
<path id="Vector_10" d="M34.0863 26.2046L32.0978 30.7525L33.4651 31.3519L35.4338 26.8499L34.0863 26.2046Z" fill="white"/>
<path id="Vector_11" d="M42.6681 25.9312L44.6653 30.4988L49.9307 25.2531L47.741 23.0874L42.6681 25.9312Z" fill="white"/>
<path id="Vector_12" d="M28.3287 23.0874L26.139 25.2509L31.4066 30.501L33.4038 25.9312L28.3287 23.0874Z" fill="white"/>
<path id="Vector_13" d="M40.7496 26.8499L42.7184 31.3519L44.0856 30.7547L42.0971 26.2046L40.7496 26.8499Z" fill="white"/>
</g>
<defs>
<clipPath id="clip0_8034_2982">
<rect width="60" height="44.2169" fill="white"/>
</clipPath>
</defs>
</svg>
