<svg width="120" height="14" viewBox="0 0 120 14" fill="none" xmlns="http://www.w3.org/2000/svg">
<g id="Layer 1">
<g id="Group">
<path id="Vector" d="M2.59226 0.65979H0V13.3482H2.59226V0.65979Z" fill="white"/>
<path id="Vector_2" d="M11.1128 3.04119H8.55773V13.342H5.94067V3.04119H3.38562V0.65979H11.1128V3.04119Z" fill="white"/>
<path id="Vector_3" d="M11.9075 0.65979H15.5044L17.1354 7.22725H17.3028L18.9152 0.65979H22.4191V13.342H19.8207V5.63965L19.9385 4.74662H19.7462L18.1214 10.8056H16.2052L14.5803 4.74662H14.3881L14.4997 5.63965V13.342H11.9075V0.65979Z" fill="white"/>
<path id="Vector_4" d="M34.1396 4.23809V9.76988C34.1396 11.9466 32.6265 13.3482 30.3691 13.3482H26.828V0.65979H30.3691C32.6203 0.65979 34.1396 2.06134 34.1396 4.23809ZM32.98 4.2753C32.98 2.74351 31.9195 1.73886 30.3319 1.73886H27.9815V12.2691H30.3319C31.9195 12.2691 32.98 11.2645 32.98 9.73267V4.2815V4.2753Z" fill="white"/>
<path id="Vector_5" d="M37.0352 1.73886V6.41484H41.4631V7.47531H37.0352V12.2629H42.0336V13.342H35.8755V0.65979H42.0336V1.73886H37.0352Z" fill="white"/>
<path id="Vector_6" d="M42.9208 0.65979H44.2293L47.1254 12.0769H47.1998L50.0774 0.65979H51.3301L47.882 13.342H46.3688L42.9208 0.65979Z" fill="white"/>
<path id="Vector_7" d="M53.7924 1.73886V6.41484H58.2203V7.47531H53.7924V12.2629H58.7909V13.342H52.6327V0.65979H58.7909V1.73886H53.7924Z" fill="white"/>
<path id="Vector_8" d="M66.3816 12.2629V13.342H60.5273V0.65979H61.687V12.2629H66.3816Z" fill="white"/>
<path id="Vector_9" d="M67.0452 9.99226V4.00775C67.0452 1.8496 68.577 0.429443 70.8715 0.429443C73.1661 0.429443 74.6607 1.8496 74.6607 4.00775V9.99226C74.6607 12.1504 73.1661 13.5706 70.8715 13.5706C68.577 13.5706 67.0452 12.1504 67.0452 9.99226ZM73.501 9.95506V4.04496C73.501 2.51317 72.4405 1.50852 70.8715 1.50852C69.3025 1.50852 68.2173 2.51317 68.2173 4.04496V9.95506C68.2173 11.4868 69.2591 12.4915 70.8715 12.4915C72.4839 12.4915 73.501 11.4868 73.501 9.95506Z" fill="white"/>
<path id="Vector_10" d="M83.4231 4.61639C83.4231 7.11562 82.0215 8.55438 79.5967 8.55438H77.5688V13.3482H76.4153V0.65979H79.5967C82.0215 0.65979 83.4231 2.09855 83.4231 4.61639ZM82.2634 4.61639C82.2634 2.78072 81.2587 1.73886 79.5161 1.73886H77.5688V7.49391H79.5161C81.2587 7.49391 82.2634 6.45205 82.2634 4.61639Z" fill="white"/>
<path id="Vector_11" d="M84.8193 0.65979H86.4504L89.4829 8.46136H89.5573L92.5651 0.65979H94.1775V13.342H92.9992V3.23344L93.0798 2.43964H92.962L89.9356 10.0304H89.0426L86.0162 2.43964H85.9046L85.979 3.23344V13.342H84.8193V0.65979Z" fill="white"/>
<path id="Vector_12" d="M97.4695 1.73886V6.41484H101.904V7.47531H97.4695V12.2629H102.468V13.342H96.316V0.65979H102.468V1.73886H97.4695Z" fill="white"/>
<path id="Vector_13" d="M104.211 0.65979H105.65L110.344 11.3203H110.456L110.381 10.5203V0.65979H111.535V13.342H110.096L105.401 2.6815H105.29L105.364 3.4815V13.342H104.211V0.65979Z" fill="white"/>
<path id="Vector_14" d="M120 1.73886H117.011V13.342H115.851V1.73886H112.844V0.65979H120V1.73886Z" fill="white"/>
</g>
</g>
</svg>
