<svg width="227" height="45" viewBox="0 0 227 45" fill="none" xmlns="http://www.w3.org/2000/svg">
<g id="ITM Logo 1" clip-path="url(#clip0_7622_5637)">
<g id="Layer 1">
<g id="Group">
<path id="Vector" d="M14.2512 7.96777L12.5756 9.64336L16.0053 13.0731H12.4971H10.1321H9.14592L7.96777 14.2512L9.14592 15.4381H12.4971H16.0053L12.5756 18.8591L14.2512 20.5434L20.5434 14.2512L14.2512 7.96777Z" fill="#FF5200"/>
<path id="Vector_2" d="M22.2189 15.9268L20.5433 17.6023L23.9643 21.0321H20.4648H18.0998H17.1136L15.9268 22.2189L17.1136 23.3971H20.4648H23.9643L20.5433 26.8268L22.2189 28.5024L28.5024 22.2189L22.2189 15.9268Z" fill="#FF5200"/>
<path id="Vector_3" d="M30.1779 23.8945L28.5023 25.5701L31.932 28.9998H28.4325H26.0675H25.0726L23.8945 30.178L25.0726 31.3648H28.4325H31.932L28.5023 34.7945L30.1779 36.4701L36.4701 30.178L30.1779 23.8945Z" fill="#FF5200"/>
<path id="Vector_4" d="M22.2189 0L20.5433 1.67558L23.9643 5.10529H20.4648H18.0998H17.1136L15.9268 6.28344L17.1136 7.47031H20.4648H23.9643L20.5433 10.9L22.2189 12.5756L28.5024 6.28344L22.2189 0Z" fill="#FF5200"/>
<path id="Vector_5" d="M30.1779 7.96777L28.5023 9.64336L31.932 13.0731H28.4325H26.0675H25.0726L23.8945 14.2512L25.0726 15.4381H28.4325H31.932L28.5023 18.8591L30.1779 20.5434L36.4701 14.2512L30.1779 7.96777Z" fill="#FF5200"/>
<path id="Vector_6" d="M38.1457 15.9268L36.4702 17.6023L39.8999 21.0321H36.3916H34.0266H33.0404L31.8536 22.2189L33.0404 23.3971H36.3916H39.8999L36.4702 26.8268L38.1457 28.5024L44.4292 22.2189L38.1457 15.9268Z" fill="#FF5200"/>
<path id="Vector_7" d="M4.60785 17.6023L8.03756 21.0321H4.53804H2.17302H1.18687L0 22.2189L1.18687 23.3971H4.53804H8.03756L4.60785 26.8268L6.28344 28.5024L12.5756 22.2189L6.28344 15.9268L4.60785 17.6023Z" fill="#FF5200"/>
<path id="Vector_8" d="M14.2512 23.8945L12.5756 25.5701L16.0053 28.9998H12.4971H10.1321H9.14592L7.96777 30.178L9.14592 31.3648H12.4971H16.0053L12.5756 34.7945L14.2512 36.4701L20.5434 30.178L14.2512 23.8945Z" fill="#FF5200"/>
<path id="Vector_9" d="M20.5433 33.5379L23.9643 36.9589H20.4648H18.0998H17.1136L15.9268 38.1457L17.1136 39.3239H20.4648H23.9643L20.5433 42.7536L22.2189 44.4292L28.5024 38.1457L22.2189 31.8536L20.5433 33.5379Z" fill="#FF5200"/>
<path id="Vector_10" d="M38.1457 15.9268L36.4702 17.6023L39.8999 21.0321H36.3916H34.0266H33.0404L31.8536 22.2189L33.0404 23.3971H36.3916H39.8999L36.4702 26.8268L38.1457 28.5024L44.4292 22.2189L38.1457 15.9268Z" fill="#FF5200"/>
<path id="Vector_11" d="M61.0104 6.28345H57.3625V24.1389H61.0104V6.28345Z" fill="#231F20"/>
<path id="Vector_12" d="M73.0014 9.63461H69.4059V24.1302H65.7231V9.63461H62.1276V6.28345H73.0014V9.63461Z" fill="#231F20"/>
<path id="Vector_13" d="M74.1185 6.28345H79.1801L81.4753 15.5253H81.711L83.98 6.28345H88.9107V24.1302H85.2541V13.2912L85.4199 12.0345H85.1494L82.8629 20.5608H80.1663L77.8798 12.0345H77.6093L77.7664 13.2912V24.1302H74.1185V6.28345Z" fill="#231F20"/>
<path id="Vector_14" d="M105.405 11.3189V19.1034C105.405 22.1666 103.275 24.1389 100.099 24.1389H95.1154V6.28345H100.099C103.266 6.28345 105.405 8.25575 105.405 11.3189ZM103.773 11.3713C103.773 9.21572 102.28 7.80194 100.046 7.80194H96.7387V22.6204H100.046C102.28 22.6204 103.773 21.2066 103.773 19.051V11.38V11.3713Z" fill="#231F20"/>
<path id="Vector_15" d="M109.48 7.80194V14.3821H115.711V15.8744H109.48V22.6117H116.514V24.1302H107.848V6.28345H116.514V7.80194H109.48Z" fill="#231F20"/>
<path id="Vector_16" d="M117.762 6.28345H119.604L123.679 22.3498H123.784L127.833 6.28345H129.596L124.744 24.1302H122.614L117.762 6.28345Z" fill="#231F20"/>
<path id="Vector_17" d="M133.061 7.80194V14.3821H139.292V15.8744H133.061V22.6117H140.095V24.1302H131.429V6.28345H140.095V7.80194H133.061Z" fill="#231F20"/>
<path id="Vector_18" d="M150.776 22.6117V24.1302H142.538V6.28345H144.17V22.6117H150.776Z" fill="#231F20"/>
<path id="Vector_19" d="M151.71 19.4176V10.9961C151.71 7.95906 153.866 5.96057 157.095 5.96057C160.324 5.96057 162.427 7.95906 162.427 10.9961V19.4176C162.427 22.4546 160.324 24.4531 157.095 24.4531C153.866 24.4531 151.71 22.4546 151.71 19.4176ZM160.795 19.3653V11.0484C160.795 8.89285 159.303 7.47907 157.095 7.47907C154.887 7.47907 153.359 8.89285 153.359 11.0484V19.3653C153.359 21.5208 154.826 22.9346 157.095 22.9346C159.364 22.9346 160.795 21.5208 160.795 19.3653Z" fill="#231F20"/>
<path id="Vector_20" d="M174.758 11.8513C174.758 15.3682 172.786 17.3929 169.374 17.3929H166.52V24.1389H164.897V6.28345H169.374C172.786 6.28345 174.758 8.30811 174.758 11.8513ZM173.126 11.8513C173.126 9.26808 171.712 7.80194 169.26 7.80194H166.52V15.9006H169.26C171.712 15.9006 173.126 14.4345 173.126 11.8513Z" fill="#231F20"/>
<path id="Vector_21" d="M176.722 6.28345H179.017L183.284 17.262H183.389L187.622 6.28345H189.891V24.1302H188.233V9.90515L188.346 8.78809H188.18L183.922 19.4699H182.665L178.406 8.78809H178.249L178.354 9.90515V24.1302H176.722V6.28345Z" fill="#231F20"/>
<path id="Vector_22" d="M194.525 7.80194V14.3821H200.765V15.8744H194.525V22.6117H201.559V24.1302H192.902V6.28345H201.559V7.80194H194.525Z" fill="#231F20"/>
<path id="Vector_23" d="M204.011 6.28345H206.036L212.642 21.2852H212.799L212.695 20.1594V6.28345H214.318V24.1302H212.293L205.687 9.12845H205.53L205.634 10.2542V24.1302H204.011V6.28345Z" fill="#231F20"/>
<path id="Vector_24" d="M226.23 7.80194H222.023V24.1302H220.391V7.80194H216.159V6.28345H226.23V7.80194Z" fill="#231F20"/>
<path id="Vector_25" d="M58.3574 31.3037V33.852H60.897V34.6811H58.3574V37.2992H61.2373V38.1544H57.4324V30.4485H61.2373V31.3037H58.3574Z" fill="#231F20"/>
<path id="Vector_26" d="M65.7055 38.1545L64.4401 35.135H63.1311V38.1545H62.2147V30.4573H64.4227C65.8713 30.4573 66.7091 31.3038 66.7091 32.7874C66.7091 33.9219 66.2291 34.6899 65.3564 34.9953L66.7964 38.1545H65.7143H65.7055ZM64.3267 34.2884C65.2604 34.2884 65.7841 33.7474 65.7841 32.7961C65.7841 31.8449 65.2517 31.3038 64.3267 31.3038H63.1311V34.2884H64.3267Z" fill="#231F20"/>
<path id="Vector_27" d="M71.9367 32.9096C71.9367 34.4717 71.064 35.3706 69.5455 35.3706H68.4546V38.1545H67.5382V30.4573H69.5455C71.064 30.4573 71.9367 31.3562 71.9367 32.9183M71.0116 32.9096C71.0116 31.8885 70.4443 31.3038 69.4669 31.3038H68.4458V34.5241H69.4669C70.4443 34.5241 71.0116 33.9481 71.0116 32.9183" fill="#231F20"/>
<path id="Vector_28" d="M79.1801 37.849V38.1457H78.4557L77.9059 37.3952C77.5132 37.9625 76.9198 38.2766 76.1693 38.2766C74.834 38.2766 73.9264 37.2905 73.9264 35.9989C73.9264 35.0564 74.3977 34.236 75.2006 33.7822V33.7037C74.8689 33.1975 74.546 32.5517 74.546 31.8972C74.546 31.042 75.1395 30.3002 76.1344 30.3002C77.1292 30.3002 77.6965 30.9896 77.6965 31.9059C77.6965 32.7088 77.1991 33.4593 76.3089 33.9742L77.9496 36.1734C77.9932 35.9814 78.0194 35.7633 78.0194 35.5276V34.6113H78.7437V35.5276C78.7437 36.0338 78.639 36.4702 78.4208 36.8192L79.1801 37.8403V37.849ZM77.583 36.9676L75.6544 34.3582C75.1395 34.7248 74.8166 35.3269 74.8166 35.9814C74.8166 36.8629 75.3926 37.5785 76.3089 37.5785C76.8412 37.5785 77.2863 37.3603 77.583 36.9676ZM75.314 31.9234C75.314 32.4906 75.602 32.9968 75.8987 33.4157C76.5445 32.9794 76.9198 32.4296 76.9198 31.8885C76.9198 31.3823 76.6231 31.0071 76.1344 31.0071C75.6195 31.0071 75.3053 31.3998 75.3053 31.9234" fill="#231F20"/>
<path id="Vector_29" d="M82.3218 31.3037V33.852H84.8614V34.6811H82.3218V37.2992H85.2017V38.1544H81.3968V30.4485H85.2017V31.3037H82.3218Z" fill="#231F20"/>
<path id="Vector_30" d="M88.5354 33.8958H86.0308V34.7161H88.5354V33.8958Z" fill="#231F20"/>
<path id="Vector_31" d="M89.3558 36.1298V32.4732C89.3558 31.1641 90.2896 30.3089 91.6859 30.3089C93.0822 30.3089 93.9985 31.1554 93.9985 32.4732V33.0928H93.0822V32.5081C93.0822 31.6878 92.5324 31.1641 91.6946 31.1641C90.8568 31.1641 90.2896 31.6878 90.2896 32.5081V36.0949C90.2896 36.9152 90.8394 37.4389 91.6946 37.4389C92.5499 37.4389 93.0822 36.9152 93.0822 36.0949V35.5102H93.9985V36.1298C93.9985 37.4389 93.0822 38.2941 91.6859 38.2941C90.2896 38.2941 89.3558 37.4476 89.3558 36.1298Z" fill="#231F20"/>
<path id="Vector_32" d="M94.6879 36.0687V32.5256C94.6879 31.1816 95.6391 30.3089 97.0704 30.3089C98.5016 30.3089 99.4267 31.1816 99.4267 32.5256V36.0687C99.4267 37.4127 98.4929 38.2854 97.0704 38.2854C95.6479 38.2854 94.6879 37.4127 94.6879 36.0687ZM98.5016 36.0338V32.5605C98.5016 31.7052 97.9256 31.1554 97.0616 31.1554C96.1977 31.1554 95.613 31.7052 95.613 32.5605V36.0338C95.613 36.8803 96.1802 37.4389 97.0616 37.4389C97.9431 37.4389 98.5016 36.8891 98.5016 36.0338Z" fill="#231F20"/>
<path id="Vector_33" d="M100.387 30.4485H101.678L103.293 35.004H103.363L104.968 30.4485H106.234V38.1544H105.317V32.3859L105.361 31.8797H105.282L103.651 36.2519H102.961L101.329 31.8797H101.251L101.303 32.3859V38.1544H100.387V30.4485Z" fill="#231F20"/>
<path id="Vector_34" d="M107.421 30.4485H108.703L110.327 35.004H110.397L112.002 30.4485H113.268V38.1544H112.351V32.3859L112.395 31.8797H112.316L110.684 36.2519H109.995L108.363 31.8797H108.276L108.337 32.3859V38.1544H107.421V30.4485Z" fill="#231F20"/>
<path id="Vector_35" d="M115.371 31.3037V33.852H117.91V34.6811H115.371V37.2992H118.251V38.1544H114.446V30.4485H118.251V31.3037H115.371Z" fill="#231F20"/>
<path id="Vector_36" d="M122.719 38.1545L121.454 35.135H120.145V38.1545H119.228V30.4573H121.436C122.885 30.4573 123.723 31.3038 123.723 32.7874C123.723 33.9219 123.243 34.6899 122.37 34.9953L123.81 38.1545H122.728H122.719ZM121.34 34.2884C122.274 34.2884 122.798 33.7474 122.798 32.7961C122.798 31.8449 122.265 31.3038 121.34 31.3038H120.145V34.2884H121.34Z" fill="#231F20"/>
<path id="Vector_37" d="M124.307 36.1298V32.4732C124.307 31.1641 125.241 30.3089 126.638 30.3089C128.034 30.3089 128.95 31.1554 128.95 32.4732V33.0928H128.034V32.5081C128.034 31.6878 127.484 31.1641 126.646 31.1641C125.809 31.1641 125.241 31.6878 125.241 32.5081V36.0949C125.241 36.9152 125.791 37.4389 126.646 37.4389C127.502 37.4389 128.034 36.9152 128.034 36.0949V35.5102H128.95V36.1298C128.95 37.4389 128.034 38.2941 126.638 38.2941C125.241 38.2941 124.307 37.4476 124.307 36.1298Z" fill="#231F20"/>
<path id="Vector_38" d="M130.792 31.3037V33.852H133.331V34.6811H130.792V37.2992H133.68V38.1544H129.875V30.4485H133.68V31.3037H130.792Z" fill="#231F20"/>
<path id="Vector_39" d="M137.267 31.3037V33.852H139.806V34.6811H137.267V37.2992H140.147V38.1544H136.342V30.4485H140.147V31.3037H137.267Z" fill="#231F20"/>
<path id="Vector_40" d="M142.652 34.3233L140.662 30.4485H141.796L143.227 33.4942H143.315L144.737 30.4485H145.785L143.856 34.2535L145.846 38.1544H144.702L143.271 35.0912H143.175L141.744 38.1544H140.697L142.652 34.3233Z" fill="#231F20"/>
<path id="Vector_41" d="M150.925 32.9096C150.925 34.4717 150.052 35.3706 148.533 35.3706H147.443V38.1545H146.526V30.4573H148.533C150.052 30.4573 150.925 31.3562 150.925 32.9183M150 32.9096C150 31.8885 149.432 31.3038 148.455 31.3038H147.434V34.5241H148.455C149.432 34.5241 150 33.9481 150 32.9183" fill="#231F20"/>
<path id="Vector_42" d="M152.583 31.3037V33.852H155.122V34.6811H152.583V37.2992H155.471V38.1544H151.666V30.4485H155.471V31.3037H152.583Z" fill="#231F20"/>
<path id="Vector_43" d="M159.94 38.1545L158.674 35.135H157.365V38.1545H156.449V30.4573H158.657C160.106 30.4573 160.943 31.3038 160.943 32.7874C160.943 33.9219 160.463 34.6899 159.591 34.9953L161.031 38.1545H159.949H159.94ZM158.561 34.2884C159.495 34.2884 160.018 33.7474 160.018 32.7961C160.018 31.8449 159.486 31.3038 158.561 31.3038H157.365V34.2884H158.561Z" fill="#231F20"/>
<path id="Vector_44" d="M165.673 31.3037H163.911V38.1544H162.994V31.3037H161.24V30.4485H165.673V31.3037Z" fill="#231F20"/>
<path id="Vector_45" d="M165.944 36.2171V35.8593H166.86V36.2084C166.86 36.9414 167.366 37.4389 168.195 37.4389C168.981 37.4389 169.487 36.9676 169.487 36.1822C169.487 34.2186 166.031 35.0651 166.031 32.3772C166.031 31.0507 166.869 30.3089 168.143 30.3089C169.417 30.3089 170.281 31.0943 170.281 32.2288V32.5605H169.374V32.2638C169.374 31.6005 168.876 31.1641 168.143 31.1641C167.41 31.1641 166.947 31.5743 166.947 32.3161C166.947 34.2448 170.403 33.3372 170.403 36.1211C170.403 37.5087 169.531 38.2941 168.195 38.2941C166.86 38.2941 165.944 37.4825 165.944 36.2258" fill="#231F20"/>
</g>
</g>
</g>
<defs>
<clipPath id="clip0_7622_5637">
<rect width="226.23" height="44.4292" fill="white"/>
</clipPath>
</defs>
</svg>
